<svg xmlns="http://www.w3.org/2000/svg" viewBox="0 0 220 56" fill="none" role="img" aria-label="hffenglan"><defs><linearGradient id="lg" x1="0" y1="0" x2="1" y2="1"><stop offset="0%" stop-color="#00d4ff"/><stop offset="50%" stop-color="#7c5cff"/><stop offset="100%" stop-color="#ff3ea5"/></linearGradient><linearGradient id="lg2" x1="0" y1="0" x2="0" y2="1"><stop offset="0%" stop-color="#ffffff" stop-opacity="0.95"/><stop offset="100%" stop-color="#c7d2fe" stop-opacity="0.85"/></linearGradient></defs><g transform="translate(6 6)"><path d="M22 2 L40 12 V32 L22 42 L4 32 V12 Z" fill="none" stroke="url(#lg)" stroke-width="2.2" stroke-linejoin="round"/><path d="M22 10 L33 16.5 V29.5 L22 36 L11 29.5 V16.5 Z" fill="url(#lg)" opacity="0.18"/><circle cx="22" cy="22" r="4" fill="url(#lg)"/><path d="M22 6 V14 M22 30 V38 M8 14 L14 17 M30 27 L36 30 M8 30 L14 27 M30 17 L36 14" stroke="url(#lg)" stroke-width="1.4" stroke-linecap="round" opacity="0.7"/></g><g transform="translate(60 0)" fill="url(#lg2)" font-family="-apple-system,BlinkMacSystemFont,Segoe UI,Inter,Helvetica,Arial,sans-serif" font-weight="700" letter-spacing="-1.2"><text x="0" y="26" font-size="22">hffenglan</text><text x="0" y="46" font-size="9" letter-spacing="6" fill="#94a3b8" font-weight="500">ENGINEERED EXPERIENCE</text></g></svg>
