<svg xmlns="http://www.w3.org/2000/svg" viewBox="0 0 1200 630" width="1200" height="630"><defs><linearGradient id="ogbg" x1="0" y1="0" x2="1" y2="1"><stop offset="0" stop-color="#04060b"/><stop offset="1" stop-color="#0a0f1c"/></linearGradient><linearGradient id="oggrad" x1="0" y1="0" x2="1" y2="1"><stop offset="0" stop-color="#00d4ff"/><stop offset=".5" stop-color="#7c5cff"/><stop offset="1" stop-color="#ff3ea5"/></linearGradient><radialGradient id="ogb1" cx=".2" cy=".3" r=".55"><stop offset="0" stop-color="#00d4ff" stop-opacity=".35"/><stop offset="1" stop-color="#00d4ff" stop-opacity="0"/></radialGradient><radialGradient id="ogb2" cx=".8" cy=".75" r=".55"><stop offset="0" stop-color="#ff3ea5" stop-opacity=".3"/><stop offset="1" stop-color="#ff3ea5" stop-opacity="0"/></radialGradient><pattern id="oggrid" width="48" height="48" patternUnits="userSpaceOnUse"><path d="M48 0 H0 V48" fill="none" stroke="rgba(140,170,220,.06)"/></pattern></defs><rect width="1200" height="630" fill="url(#ogbg)"/><rect width="1200" height="630" fill="url(#oggrid)"/><rect width="1200" height="630" fill="url(#ogb1)"/><rect width="1200" height="630" fill="url(#ogb2)"/><g transform="translate(72 80)"><path d="M44 4 L80 24 V64 L44 84 L8 64 V24 Z" fill="none" stroke="url(#oggrad)" stroke-width="3" stroke-linejoin="round"/><path d="M44 22 L65 36 V58 L44 70 L23 58 V36 Z" fill="url(#oggrad)" opacity=".18"/><circle cx="44" cy="44" r="9" fill="url(#oggrad)"/></g><text x="72" y="280" font-family="-apple-system,Segoe UI,Inter,Helvetica,Arial,sans-serif" font-size="72" font-weight="800" fill="#fff" letter-spacing="-2.4">Engineered digital</text><text x="72" y="356" font-family="-apple-system,Segoe UI,Inter,Helvetica,Arial,sans-serif" font-size="72" font-weight="800" fill="url(#oggrad)" letter-spacing="-2.4">experiences, privately.</text><text x="72" y="430" font-family="-apple-system,Segoe UI,Inter,Helvetica,Arial,sans-serif" font-size="26" font-weight="500" fill="#a4e8ff">hffenglan | Exeter, UK | Senior-only product studio</text><g transform="translate(72 500)" font-family="monospace" font-size="14" font-weight="600" fill="#e6edf7"><g><rect width="180" height="40" rx="20" fill="rgba(0,212,255,.10)" stroke="rgba(0,212,255,.45)"/><text x="90" y="25" text-anchor="middle">PRIVACY-FIRST</text></g><g transform="translate(196 0)"><rect width="170" height="40" rx="20" fill="rgba(124,92,255,.10)" stroke="rgba(124,92,255,.45)"/><text x="85" y="25" text-anchor="middle">LOCAL-FIRST</text></g><g transform="translate(382 0)"><rect width="170" height="40" rx="20" fill="rgba(255,62,165,.10)" stroke="rgba(255,62,165,.45)"/><text x="85" y="25" text-anchor="middle">NATIVE APPS</text></g></g><text x="1128" y="600" font-family="monospace" font-size="14" fill="#94a3b8" text-anchor="end">HFFENGLAN.COM</text><g transform="translate(770 460)" opacity=".7"><path d="M0 40 C20 10 40 70 60 40 S100 10 120 40 S160 70 180 40 S220 10 240 40" fill="none" stroke="url(#oggrad)" stroke-width="2"/><path d="M0 40 C20 10 40 70 60 40 S100 10 120 40 S160 70 180 40 S220 10 240 40" fill="none" stroke="url(#oggrad)" stroke-width="1" stroke-dasharray="3 4" opacity=".6"/></g><g opacity=".55"><circle cx="990" cy="120" r="80" fill="url(#oggrad)"/><circle cx="1050" cy="220" r="40" fill="url(#oggrad)" opacity=".7"/></g></svg>